<?xml version="1.0" standalone="no"?>
<!DOCTYPE svg PUBLIC "-//W3C//DTD SVG 20010904//EN"
 "http://www.w3.org/TR/2001/REC-SVG-20010904/DTD/svg10.dtd">
<svg version="1.0" xmlns="http://www.w3.org/2000/svg"
 width="200.000000pt" height="200.000000pt" viewBox="0 0 200.000000 200.000000"
 preserveAspectRatio="xMidYMid meet">
<metadata>
Created by potrace 1.10, written by Peter Selinger 2001-2011
</metadata>
<g transform="translate(0.000000,200.000000) scale(0.100000,-0.100000)"
fill="#000000" stroke="none">
<path d="M887 1266 c-60 -16 -89 -44 -118 -109 -25 -59 -39 -190 -20 -201 19
-12 12 -26 -13 -26 -58 0 -90 38 -60 71 14 15 16 25 8 47 -8 23 -16 27 -52 30
l-42 3 0 -85 c0 -68 3 -86 14 -86 10 0 16 13 18 38 l4 37 16 -36 c14 -30 24
-37 55 -43 59 -9 152 -7 174 4 16 9 19 7 19 -12 0 -38 -43 -102 -80 -121 -29
-15 -52 -18 -135 -14 -55 2 -111 0 -125 -4 -24 -7 -24 -7 4 -8 17 -1 66 -6
110 -12 133 -19 203 13 246 112 23 55 36 142 27 181 -4 13 -15 33 -27 45 l-20
23 32 -7 c40 -7 37 -7 68 3 l25 8 -25 7 c-42 12 -123 9 -165 -6 -21 -8 -40
-13 -41 -12 -2 1 7 27 19 57 19 46 29 59 67 78 41 22 54 23 145 19 118 -6 175
6 75 16 -36 3 -85 9 -110 11 -25 3 -67 0 -93 -8z m-2 -210 c35 -36 35 -93 -1
-106 -74 -28 -123 6 -109 77 9 49 8 48 49 51 27 2 42 -4 61 -22z m-229 -17 c3
-6 0 -15 -7 -20 -22 -14 -29 -11 -29 11 0 21 24 27 36 9z"/>
<path d="M1676 1259 c-31 -25 -34 -61 -6 -89 39 -39 110 -11 110 44 0 25 -41
66 -65 66 -7 0 -24 -9 -39 -21z m72 -11 c16 -16 15 -53 -2 -67 -22 -19 -68 -9
-77 15 -16 45 46 85 79 52z"/>
<path d="M1690 1213 c0 -30 3 -35 11 -23 8 11 12 12 16 3 9 -24 19 -13 18 20
0 25 -5 33 -22 35 -20 3 -23 -1 -23 -35z"/>
<path d="M535 1229 c5 -27 24 -156 26 -174 0 -5 4 -1 8 9 10 25 -3 113 -23
156 -13 28 -15 30 -11 9z"/>
<path d="M1002 1084 c-31 -21 -27 -55 8 -89 31 -30 39 -55 17 -55 -7 0 -18 5
-25 12 -9 9 -15 9 -24 -1 -11 -10 -9 -15 6 -27 67 -49 118 27 56 83 -16 14
-30 32 -30 40 0 15 16 17 25 3 3 -5 15 -10 26 -10 10 0 18 -3 17 -7 0 -5 6
-24 15 -44 9 -20 21 -63 26 -97 9 -54 34 -122 46 -122 2 0 0 12 -5 26 -6 14
-15 58 -21 97 -13 84 -31 132 -62 165 -34 37 -51 43 -75 26z"/>
<path d="M390 995 c0 -69 3 -85 15 -85 11 0 15 11 15 35 0 25 5 37 18 41 35
11 47 21 50 43 5 33 -16 51 -59 51 l-39 0 0 -85z m70 41 c0 -15 -24 -28 -34
-19 -13 14 -5 33 14 33 11 0 20 -6 20 -14z"/>
<path d="M1170 1011 c0 -76 13 -101 55 -101 42 0 55 25 55 101 0 54 -3 69 -15
69 -11 0 -15 -16 -17 -67 -3 -60 -5 -68 -23 -68 -18 0 -20 8 -23 68 -2 51 -6
67 -17 67 -12 0 -15 -15 -15 -69z"/>
<path d="M1386 997 c1 -68 4 -83 17 -85 13 -3 17 5 17 35 l1 38 20 -37 c11
-21 26 -38 34 -38 20 0 19 9 -5 48 -17 27 -18 34 -6 38 23 9 28 35 11 60 -12
18 -25 24 -53 24 l-37 0 1 -83z m67 46 c8 -7 -11 -33 -24 -33 -5 0 -9 9 -9 20
0 19 20 27 33 13z"/>
<path d="M1580 995 l0 -85 50 0 c44 0 50 3 50 21 0 17 -5 20 -31 17 -27 -2
-33 1 -35 20 -3 19 0 22 31 22 24 0 35 5 35 15 0 10 -11 15 -35 15 -24 0 -35
5 -35 15 0 10 11 15 35 15 24 0 35 5 35 15 0 11 -12 15 -50 15 l-50 0 0 -85z"/>
<path d="M1188 840 c2 -16 8 -30 13 -30 5 0 9 14 9 30 0 18 -5 30 -13 30 -9 0
-12 -10 -9 -30z"/>
<path d="M1315 860 c6 -10 -25 -14 -72 -10 -17 1 -23 -4 -23 -19 0 -14 6 -21
20 -21 11 0 20 5 20 11 0 6 7 4 15 -4 17 -18 55 -11 55 9 0 8 5 14 11 14 6 0
9 -7 5 -15 -3 -9 0 -15 9 -15 8 0 15 7 15 15 0 8 5 15 10 15 6 0 10 -7 10 -17
0 -9 3 -13 6 -10 4 3 15 2 25 -3 11 -6 20 -6 23 -1 4 5 19 7 35 5 18 -3 35 1
44 11 17 17 37 20 37 6 0 -5 -9 -11 -21 -14 -12 -3 -18 -10 -14 -16 10 -17 33
-13 48 10 8 11 16 16 18 11 6 -15 62 -19 66 -4 3 8 -1 10 -14 6 -16 -6 -16 -5
2 9 19 16 14 16 -77 14 -80 -2 -98 1 -102 13 -3 13 -4 13 -5 0 -1 -12 -14 -15
-63 -14 -36 1 -64 6 -66 13 -2 6 -8 11 -13 11 -6 0 -7 -4 -4 -10z"/>
</g>
</svg>
